<svg width="706" height="813" viewBox="0 0 706 813" fill="none" xmlns="http://www.w3.org/2000/svg">
<g clip-path="url(#clip0_101_2)">
<path d="M19.6405 387.322L424.32 275.929C447.954 267.697 471.047 272.376 493.597 289.968L690.444 488.95C705.642 502.329 709.61 525.423 702.347 558.227L674.269 649.173L265.318 808.176C235.903 818.762 207.012 810.826 178.644 784.372L33.6793 553.954L0.10874 430.659C-0.937178 409.543 5.57488 395.097 19.6405 387.322Z" fill="#F8FFFB"/>
<path d="M0.108735 430.659C-0.594991 416.438 2.12767 405.242 8.2782 397.071C98.7538 533.136 152.179 613.466 174.774 647.428L172.95 775.321L33.6793 553.954L0.108735 430.659Z" fill="#878383"/>
<path d="M142.013 439.064C142.013 374.94 239.237 322.958 359.174 322.958C479.109 322.958 576.335 374.94 576.335 439.064C576.335 503.186 479.109 555.168 359.174 555.168C239.237 555.168 142.013 503.186 142.013 439.064Z" fill="#878383"/>
<path d="M144.212 452.179C144.212 388.055 241.436 336.075 361.371 336.075C481.308 336.075 578.532 388.055 578.532 452.179C578.532 516.303 481.308 568.283 361.371 568.283C241.436 568.283 144.212 516.303 144.212 452.179Z" fill="#F8FFFB"/>
<path d="M180.779 575.624C180.779 555.903 205.033 539.917 234.951 539.917C264.869 539.917 289.123 555.903 289.123 575.624C289.123 595.345 264.869 611.331 234.951 611.331C205.033 611.331 180.779 595.345 180.779 575.624Z" fill="#FF0000"/>
<path d="M289.057 573.868C289.1 574.45 289.123 575.035 289.123 575.624C289.123 595.345 264.869 611.331 234.951 611.331C205.251 611.331 181.042 595.578 180.783 576.056V603.99C212.857 636.36 270.513 637.271 293.104 600.351L289.057 573.868Z" fill="#878383"/>
<path d="M181.359 437.964C181.359 385.041 263.685 342.139 365.238 342.139C466.795 342.139 549.119 385.041 549.119 437.964C549.119 490.888 466.795 533.789 365.238 533.789C263.685 533.789 181.359 490.888 181.359 437.964Z" fill="#878383"/>
<path d="M184.771 446.228C184.771 395.983 265.517 355.254 365.125 355.254C464.733 355.254 545.48 395.983 545.48 446.228C545.48 496.47 464.733 537.2 365.125 537.2C265.517 537.2 184.771 496.47 184.771 446.228Z" fill="#F8FFFB"/>
<path d="M195.46 456.917C195.46 409.897 270.063 371.782 362.093 371.782C454.122 371.782 528.726 409.897 528.726 456.917C528.726 503.936 454.122 542.052 362.093 542.052C270.063 542.052 195.46 503.936 195.46 456.917Z" fill="#878383"/>
<path d="M211.002 446.833C211.002 404.712 278.969 370.568 362.813 370.568C446.658 370.568 514.624 404.712 514.624 446.833C514.624 488.956 446.658 523.1 362.813 523.1C278.969 523.1 211.002 488.956 211.002 446.833Z" fill="#F8FFFB"/>
<path d="M209.788 431.406C209.788 390.019 276.941 356.468 359.781 356.468C442.62 356.468 509.773 390.019 509.773 431.406C509.773 472.795 442.62 506.345 359.781 506.345C276.941 506.345 209.788 472.795 209.788 431.406Z" fill="#878383"/>
<path d="M224.117 427.275C224.117 387.499 286.976 355.254 364.518 355.254C442.062 355.254 504.921 387.499 504.921 427.275C504.921 467.051 442.062 499.296 364.518 499.296C286.976 499.296 224.117 467.051 224.117 427.275Z" fill="#F8FFFB"/>
<path d="M234.806 410.028C234.806 366.629 292.879 331.449 364.518 331.449C436.158 331.449 494.231 366.629 494.231 410.028C494.231 453.426 436.158 488.606 364.518 488.606C292.879 488.606 234.806 453.426 234.806 410.028Z" fill="#878383"/>
<path d="M240.871 410.521C240.871 378.658 295.194 352.829 362.206 352.829C429.219 352.829 483.541 378.658 483.541 410.521C483.541 442.383 429.219 468.213 362.206 468.213C295.194 468.213 240.871 442.383 240.871 410.521Z" fill="#F8FFFB"/>
<path d="M262.25 402.75C262.25 373.839 307.272 350.402 362.813 350.402C418.352 350.402 463.376 373.839 463.376 402.75C463.376 431.661 418.352 455.098 362.813 455.098C307.272 455.098 262.25 431.661 262.25 402.75Z" fill="#878383"/>
<path d="M275.365 398.731C275.365 376.059 314.787 357.68 363.419 357.68C412.052 357.68 451.474 376.059 451.474 398.731C451.474 421.404 412.052 439.784 363.419 439.784C314.787 439.784 275.365 421.404 275.365 398.731Z" fill="#F8FFFB"/>
<path d="M294.318 387.322C294.318 370.282 326.019 356.468 365.125 356.468C404.232 356.468 435.932 370.282 435.932 387.322C435.932 404.363 404.232 418.177 365.125 418.177C326.019 418.177 294.318 404.363 294.318 387.322Z" fill="#878383"/>
<path d="M306.22 379.552C306.22 368.016 330.742 358.665 360.994 358.665C391.245 358.665 415.767 368.016 415.767 379.552C415.767 391.087 391.245 400.438 360.994 400.438C330.742 400.438 306.22 391.087 306.22 379.552Z" fill="#F8FFFB"/>
<path d="M180.779 583.063C180.779 581.807 180.878 580.566 181.069 579.344C183.891 597.316 206.937 611.331 234.951 611.331C262.964 611.331 286.01 597.316 288.833 579.344C289.025 580.566 289.123 581.807 289.123 583.063C289.123 602.784 264.869 618.77 234.951 618.77C205.033 618.77 180.779 602.784 180.779 583.063Z" fill="#F8FFFB"/>
<path d="M694.074 492.569C704.66 504.542 708.121 522.676 704.456 546.971L238.446 690.946C193.755 701.204 161.205 690.034 140.8 657.438L0.00311462 427.086C-0.102519 414.953 2.4788 405.191 7.7441 397.802L172.868 646.748C186.188 657.548 213.558 659.974 254.972 654.026L669.355 523.1C683.228 514.062 691.468 503.886 694.074 492.569Z" fill="#878383"/>
<path d="M321.479 16.2127C323.931 13.1002 327.253 10.4341 331.275 8.17413L331.26 381.479C326.917 379.158 323.544 376.407 321.479 373.277V16.2127Z" fill="#F8FFFB"/>
<path d="M349.054 1.87779C352.891 1.09224 356.89 0.553662 361.031 0.256104C361.031 181.654 361.023 312.536 361.014 389.028C356.887 388.739 352.9 388.216 349.112 387.472C342.307 386.133 336.18 384.102 331.26 381.479L331.275 8.17416C336.345 5.33843 342.442 3.23912 349.054 1.87779Z" fill="#878383"/>
<path d="M386.497 387.607C378.172 389.192 369.388 389.611 361.014 389.028C361.023 312.536 361.031 181.654 361.031 0.25611C369.502 -0.346446 378.261 0.123718 386.439 1.66358C398.972 4.03364 410.08 8.8749 416.698 16.2127V373.277C409.246 380.728 398.342 385.349 386.497 387.607Z" fill="#F8FFFB"/>
<path d="M321.479 16.2127C338.464 -5.35287 397.157 -5.45552 416.698 16.2127V32.3448C400.38 35.853 381.073 37.8824 360.382 37.8824C346.648 37.8824 333.524 36.9882 321.479 35.3606V16.2127Z" fill="#F8FFFB"/>
<path d="M360.382 30.4434C369.538 30.4434 378.423 30.0461 386.897 29.2993L386.899 36.7382C378.423 37.4851 369.538 37.8823 360.382 37.8823C346.648 37.8823 333.524 36.9882 321.479 35.3605V21.9704C333.524 23.598 346.648 30.4434 360.382 30.4434Z" fill="#878383"/>
</g>
<defs>
<clipPath id="clip0_101_2">
<rect width="705.87" height="812.714" fill="white"/>
</clipPath>
</defs>
</svg>
